<?xml version="1.0" standalone="no"?>
<!DOCTYPE svg PUBLIC "-//W3C//DTD SVG 20010904//EN"
 "http://www.w3.org/TR/2001/REC-SVG-20010904/DTD/svg10.dtd">
<svg version="1.0" xmlns="http://www.w3.org/2000/svg"
 width="700.000000pt" height="700.000000pt" viewBox="0 0 700.000000 700.000000"
 preserveAspectRatio="xMidYMid meet">
<metadata>
Created by potrace 1.11, written by Peter Selinger 2001-2013
</metadata>
<g transform="translate(0.000000,700.000000) scale(0.100000,-0.100000)"
fill="#000000" stroke="none">
<path d="M346 5299 c-37 -10 -75 -46 -92 -86 -15 -35 -14 105 -17 -3073 -2
-1775 -2 -1775 19 -1815 13 -26 35 -47 64 -62 l43 -23 2641 2 2641 3 48 24
c27 13 70 45 96 70 55 54 62 71 156 396 36 127 70 244 76 260 29 94 129 438
149 510 7 26 39 134 140 475 10 36 44 151 74 255 31 105 60 204 66 220 5 17
25 84 44 150 49 168 284 972 297 1016 25 81 -9 160 -81 190 -40 17 -41 17
-362 18 l-307 1 -3 373 c-3 372 -3 372 -27 422 -32 63 -96 127 -158 157 l-48
23 -627 3 c-584 2 -627 4 -632 20 -6 19 -30 131 -51 238 -18 94 -36 136 -76
174 -73 69 106 64 -2074 65 -1084 1 -1983 -2 -1999 -6z"/>
</g>
</svg>
